<?xml version="1.0" encoding="UTF-8"?>
<svg
    width="300"
    height="300"
    viewBox="0 0 300 300"
    xmlns="http://www.w3.org/2000/svg"
    xmlns:xlink="http://www.w3.org/1999/xlink"
>
    <!-- Background Circle -->
    <circle cx="150" cy="150" r="140" fill="#F4D03F" stroke="#E67E22" stroke-width="10" />
    
    <!-- Monkey Head -->
    <ellipse cx="150" cy="150" rx="80" ry="90" fill="#8D6E63" stroke="#5D4037" stroke-width="5" />
    
    <!-- Ears -->
    <circle cx="60" cy="140" r="30" fill="#8D6E63" stroke="#5D4037" stroke-width="5" />
    <circle cx="240" cy="140" r="30" fill="#8D6E63" stroke="#5D4037" stroke-width="5" />
    
    <!-- Sunglasses -->
    <rect x="90" y="110" width="50" height="30" fill="#000" stroke="#333" stroke-width="3" rx="5" />
    <rect x="160" y="110" width="50" height="30" fill="#000" stroke="#333" stroke-width="3" rx="5" />
    <rect x="140" y="120" width="20" height="10" fill="#333" />
    
    <!-- Nose -->
    <ellipse cx="150" cy="180" rx="20" ry="15" fill="#6D4C41" />
    
    <!-- Mouth -->
    <path d="M120,200 Q150,220 180,200" stroke="#5D4037" stroke-width="5" fill="white" />
    <path d="M130,205 L170,205" stroke="#5D4037" stroke-width="2" />
    
    <!-- Smoking Pipe -->
    <rect x="140" y="205" width="40" height="10" fill="#4E342E" stroke="#3E2723" stroke-width="2" />
    <ellipse cx="180" cy="210" rx="10" ry="15" fill="#6D4C41" stroke="#4E342E" stroke-width="2" />
    
    <!-- Smoke -->
    <circle cx="190" cy="180" r="8" fill="#B0BEC5" opacity="0.7" />
    <circle cx="200" cy="160" r="10" fill="#CFD8DC" opacity="0.5" />
    <circle cx="210" cy="140" r="12" fill="#ECEFF1" opacity="0.3" />
</svg>
